<?xml version="1.0" encoding="utf-8"?>
<!-- Generator: Adobe Illustrator 26.0.3, SVG Export Plug-In . SVG Version: 6.00 Build 0)  -->
<svg version="1.0" id="Layer_1" xmlns="http://www.w3.org/2000/svg" xmlns:xlink="http://www.w3.org/1999/xlink" x="0px" y="0px"
	 viewBox="0 0 255 178" style="enable-background:new 0 0 255 178;" xml:space="preserve">
<style type="text/css">
	.st0{fill:#333333;}
	.st1{fill:#EC1C27;}
	.st2{fill:none;}
</style>
<path class="st0" d="M126.3,79.7c0-2.1-1.4-3.1-4.2-3.1s-4.2,1-4.2,3.1v0.7c0,1.1,0.7,2,1.8,2.3l7.5,2.7c3,1.1,5.1,3,5.1,6.2v3.3
	c0,3.6-2.5,7.1-10.3,7.1s-10.3-3.4-10.3-7.1v-2.7c0-0.8,0.3-1.1,1-1.1h3.6c0.8,0,1,0.3,1,1.1v2c0,2.1,1.6,3.1,4.6,3.1s4.6-1,4.6-3.1
	v-1.4c0-1.8-1.7-2.5-3.7-3.2l-6.6-2.6c-2.3-0.9-3.9-3.1-3.9-5.6v-2.5c0-3.6,2.2-7.1,9.8-7.1s10,3.4,10,7.1v1.8
	c0,0.7-0.3,1.1-1.1,1.1h-3.7c-0.7,0-1-0.3-1-1.1L126.3,79.7L126.3,79.7z"/>
<path class="st0" d="M193.4,72.2c0.7,0,1.1,0.2,1.1,1v2.7c0,0.8-0.3,1.1-1.1,1.1h-11v7h10.3c0.8,0,1.1,0.2,1.1,1v2.8
	c0,0.8-0.3,1.1-1.1,1.1h-10.3v11.6c0,0.8-0.2,1.2-1,1.2h-3.8c-0.8,0-1-0.3-1-1.2V73.3c0-0.8,0.2-1.2,1-1.2H193.4z"/>
<path class="st0" d="M205.4,96.9c0,0-0.7,0.1-0.9,0.1c-1.8,0-2.3-0.7-2.3-2.3V81.1c0-0.8-0.3-1.1-1.1-1.1h-3.5
	c-0.7,0-1.1,0.3-1.1,1.1v15c0,3.4,2.3,5.8,6.2,5.8c0.9,0,1.7-0.1,2.6-0.3c0.1,0,0.1-0.1,0.2-0.1S205.7,96.8,205.4,96.9z"/>
<path class="st0" d="M213.8,80.1h-3.6c-0.8,0-1.1,0.3-1.1,1.1v14l0.2,5.4c0.1,0.8,0.3,1.1,1.1,1.1h3.3c0.7,0,1-0.3,1-1.1V81.1
	C214.9,80.3,214.5,80.1,213.8,80.1z"/>
<path class="st0" d="M173.3,80.1H170c-0.7,0-1,0.4-1.1,1.1l-6.8,21l0,0l-2.1,7.1c-0.2,0.7,0.2,1.1,1.1,1.1h2.6
	c0.8,0,1.1-0.5,1.2-1.1l9.6-28.1C174.6,80.4,174.1,80.1,173.3,80.1z"/>
<path class="st0" d="M144.4,96.8c-0.7-0.2-1,0.2-1,1v2.5c0,0.8,0.5,1,1,1.2V96.8z"/>
<path class="st0" d="M205.3,96.9c0.7-0.2,1,0.2,1,1v2.5c0,0.8-0.5,1-1,1.1V96.9z"/>
<path class="st0" d="M162.9,88.3c-0.1-0.4-2.3-7.2-2.3-7.2c-0.2-0.7-0.4-1.1-1.2-1.1h-3.6c-0.7,0-1.2,0.4-1,1.1l5.4,15.6
	c0,0,0.4,0.5,0.6,0c0.6-2,2-6.4,2.1-7C163.1,89.3,163.1,88.8,162.9,88.3z"/>
<path class="st0" d="M147.4,79.7c-2.5,0-5,0.9-6.9,2.5l-0.1-1c0-0.8-0.2-1.1-1-1.1h-3.3c-0.8,0-1.1,0.3-1.1,1.1v28.1
	c0,0.8,0.3,1.1,1.1,1.1h3.6c0.7,0,1-0.3,1-1.1V86.6c1.4-1.2,3.2-1.9,5-2c2,0,2.3,1.1,2.3,2.2v7.8c0,1.2-0.3,2.3-2.3,2.3
	c-0.5,0-0.9,0-1.3-0.1c-0.3,0-0.3,4.6,0,4.6c1,0.3,2.1,0.4,3.1,0.4c4.3,0,6.2-2.5,6.2-6.3V86C153.7,82.2,151.7,79.7,147.4,79.7z"/>
<path class="st0" d="M78.9,60.4c-2.3-0.6-4.6-1-7-1.1l0.3,2.7c2,0.1,4,0.5,6,1c14.7,4.1,23.4,19.1,19.6,33.9l0,0
	c-1.6,5.8-5,10.9-9.8,14.6l-5.2-6.3c-0.1-0.1-0.1-0.2-0.1-0.4l2.1-6.6l-11.3,2.1c-0.1,0-0.2,0-0.3-0.1c-0.1-0.1-0.1-0.2-0.2-0.3
	l0-1.9c0-0.1,0-0.2,0.1-0.3l9.2-6.8C82,89.4,79.7,80.8,77,77.3C77,77.2,77,77.1,77,77c0.1-0.1,0.2-0.2,0.3-0.2L91.1,76l-19-9.2
	c-0.1-0.1-0.2-0.2-0.2-0.3L71,57.4l-22,6.2l1.5,6.4c0,0.1,0,0.3-0.1,0.4l-7.2,5.2l-0.2,1l9.6,0.9c0.2,0,0.3,0.1,0.3,0.3L58,98.7v0.2
	l0.2,0.5l-0.4-0.2h-0.2l-11.8-4.4l1,8.8c-3.5-6-4.6-13-3.2-19.8l0.3-1.2c0.5-1.7,1.1-3.3,1.9-4.9l-2.9-0.3c-0.6,1.3-1.1,2.6-1.4,3.9
	l-0.1,0.1c-0.2,0.6-0.3,1.2-0.5,1.9c-3.7,16.5,6.7,32.9,23.2,36.7s32.9-6.7,36.7-23.2C104.3,80.7,94.7,64.7,78.9,60.4z M63.7,96.7
	l16.8-5l-9.4,5.6L63.7,96.7z"/>
<path class="st1" d="M78.5,116.3l-6.4-12.6l-7.3-0.8l10.7,14C76.5,116.8,77.5,116.6,78.5,116.3z"/>
<rect x="31" y="51" class="st2" width="193" height="76"/>
</svg>
